{"title":"Thelma and Louise (1991) Susan Sarandon (Opt. MULTISUBS)","uid":4825920,"size":750712513,"categoryP":"video","categoryS":"movies","magnet":"?xt=urn:btih:c29d08bd2c958086a83eab80a196b8662d75c4b2&amp;dn=Thelma+and+Louise+%281991%29+Susan+Sarandon+%28Opt.+MULTISUBS%29&amp;tr=udp%3A%2F%2Ftracker.openbittorrent.com%3A80&amp;tr=udp%3A%2F%2Fopen.demonii.com%3A1337&amp;tr=udp%3A%2F%2Ftracker.coppersurfer.tk%3A6969&amp;tr=udp%3A%2F%2Fexodus.desync.com%3A6969","seeders":2,"leechers":0,"uploader":"Kuthumi","files":-1,"time":1238946119,"description":" &lt;a href=&quot;http://www.imdb.com/title/tt0103074/&quot; rel=&quot;nofollow&quot; target=&quot;_NEW&quot;&gt;http://www.imdb.com/title/tt0103074/&lt;/a&gt;\n\na.k.a.\nThelma &amp; Louise (1991)\nThelma Louise (1991)\nThelma  Louise (1991)\nThelma and Louise (1991)\nThelma &amp; Louise*\nThelma Louise*\nThelma  Louise*\n\nWith: Geena Davis, Brad Pitt, Michael Madsen and Harvey Keitel.\n\nOptional subtitles in separate idx/sub files: (Work in Windows Media Player etc.): Danish, Dutch, English for the hearing impaired, English (normal), Finnish, French, German, Italian, Norwegian, Portuguese, Spanish, Swedish.\n\nThis Oscar-winning, classic road trip may be regarded as the ultimate journey to women's liberation. Also known as the breakthrough for Brad Pitt (then 26) playing the sexy hustler.\n\nGreat soundtrack: Be prepared for a reencounter with &quot;The Ballad Of Lucy Jordan&quot; sung by Marianne Faithfull (starts 1h27m), and &quot;Part Of You, Part Of Me&quot; with Glenn Frey (end texts). Note that English subtitles for the hearing impaired displays text (in English) for all songs.\nSoundtrack listing at http://www.imdb.com/title/tt0103074/soundtrack\n\nWidescreen DVDrip XviD 2-pass 704x288, great stereo sound AC3.\nRuns well in both my standalone DivX players.\n\nMediaInfo analysis:\nFormat/Info                      : Audio Video Interleave\nFile size                        : 695 MiB\nDuration                         : 2h 4mn\nOveral bit rate                  : 783 Kbps\n\nVideo\nFormat                           : MPEG-4 Visual\nFormat profile                   : Streaming Video@L1\nFormat settings, BVOP            : Yes\nFormat settings, QPel            : No\nFormat settings, GMC             : No warppoints\nFormat settings, Matrix          : Default\nMuxing mode                      : Packet Bitstream\nCodec ID                         : XVID\nCodec ID/Hint                    : XviD\nDuration                         : 2h 4mn\nBit rate                         : 645 Kbps\nWidth                            : 704 pixels\nHeight                           : 288 pixels\nDisplay aspect ratio             : 2.444\nFrame rate                       : 25.000 fps\nResolution                       : 8 bits\nColorimetry                      : 4:2:0\nScan type                        : Progressive\nBits/(Pixel*Frame)               : 0.127\nStream size                      : 573 MiB\nWriting library                  : XviD 1.2.0.dev47 (UTC 2006-11-01)\n\nAudio\nFormat                           : MPEG Audio\nFormat version                   : Version 1\nFormat profile                   : Layer 3\nCodec ID                         : 55\nCodec ID/Hint                    : MP3\nDuration                         : 2h 4mn\nBit rate mode                    : Constant\nBit rate                         : 128 Kbps\nMinimum bit rate                 : 128 Kbps\nChannel(s)                       : 2 channels\nSampling rate                    : 48.0 KHz\nResolution                       : 16 bits\nStream size                      : 114 MiB\nWriting library                  : LAME3.97 \nEncoding settings                : CBR\n\nSource: PAL native 6.8 GiB","torrent":{"xt":"urn:btih:c29d08bd2c958086a83eab80a196b8662d75c4b2","amp;dn":"Thelma+and+Louise+%281991%29+Susan+Sarandon+%28Opt.+MULTISUBS%29","amp;tr":["udp%3A%2F%2Ftracker.openbittorrent.com%3A80","udp%3A%2F%2Fopen.demonii.com%3A1337","udp%3A%2F%2Ftracker.coppersurfer.tk%3A6969","udp%3A%2F%2Fexodus.desync.com%3A6969"],"infoHash":"c29d08bd2c958086a83eab80a196b8662d75c4b2","infoHashBuffer":{"type":"Buffer","data":[194,157,8,189,44,149,128,134,168,62,171,128,161,150,184,102,45,117,196,178]},"announce":[],"urlList":[]}}